<?xml version="1.0" encoding="utf-8"?>
<!-- Generator: Adobe Illustrator 25.4.1, SVG Export Plug-In . SVG Version: 6.00 Build 0)  -->
<svg version="1.1" id="Capa_1" xmlns="http://www.w3.org/2000/svg" xmlns:xlink="http://www.w3.org/1999/xlink" x="0px" y="0px"
	 viewBox="0 0 218.4 295.9" style="enable-background:new 0 0 218.4 295.9;" xml:space="preserve">
<style type="text/css">
	.st0{fill:#333333;}
</style>
<path class="st0" d="M5.2,0h144.9l0,0l0,0l0,0h0.3l0,0l0,0l0,0l0,0l0,0l0,0h0.3l0,0l0,0l0,0l0,0l0,0h0.3l0,0l0,0l0,0l0,0l0,0l0,0
	l0,0h0.3l0,0l0,0l0,0l0,0l0,0h0.3l0,0v0.3l0,0l0,0l0,0l0,0h0.3l0,0l0,0l0,0l0,0l0,0l0,0l0,0h0.3l0,0l0,0l0,0l0,0l0,0v0.3h0.3l0,0
	l0,0l0,0l0,0l0,0l0,0l0,0h0.3l0,0l0,0l0,0l0,0v0.3l0,0h0.3l0,0l0,0l0,0l0,0l0,0l0,0l0,0l0,0h0.3v0.3l0,0l0,0l0,0l0,0l0,0l0,0l0,0
	h0.3l0,0l0,0v0.3l0,0l0,0l0,0l0,0l0,0h0.3l0,0l62.8,63.1h0.3v0.3l0,0l0,0l0,0h0.3l0,0l0,0v0.3l0,0l0,0l0,0l0,0l0,0l0,0l0,0h0.3v0.3
	l0,0l0,0l0,0l0,0l0,0l0,0l0,0v0.3l0,0l0,0l0,0h0.3l0,0l0,0l0,0V66l0,0l0,0l0,0l0,0l0,0l0,0v0.3l0,0l0,0h0.3l0,0l0,0v0.3l0,0l0,0l0,0
	l0,0l0,0l0,0v0.3l0,0l0,0v0.3l0,0l0,0h0.3l0,0l0,0v0.3l0,0l0,0v0.3l0,0v0.6l0,0l0,0l0,0v222.4c0,2.9-2.3,5.2-5.2,5.2H5.2
	c-2.9,0-5.2-2.3-5.2-5.2V4.9C0,2.3,2.3,0,5.2,0L5.2,0z M36.3,47.2h63.4c2.9,0,5.2,2.3,5.2,5.2v63.7c0,2.6-2.3,4.9-5.2,4.9H36.3
	c-2.9,0-5.2-2.3-5.2-4.9V52.4C31.1,49.6,33.4,47.2,36.3,47.2L36.3,47.2z M94.5,57.6H41.2v53.3h53.3V57.6z M36.3,248.3
	c-2.9,0-5.2-2-5.2-4.9s2.3-5.2,5.2-5.2H140c2.9,0,5.2,2.3,5.2,5.2s-2.3,4.9-5.2,4.9H36.3z M36.3,205.7c-2.9,0-5.2-2.3-5.2-5.2
	s2.3-5.2,5.2-5.2h146.1c2.6,0,4.9,2.3,4.9,5.2s-2.3,5.2-4.9,5.2H36.3z M36.3,162.8c-2.9,0-5.2-2.3-5.2-5.2c0-2.9,2.3-4.9,5.2-4.9
	H140c2.9,0,5.2,2,5.2,4.9c0,2.9-2.3,5.2-5.2,5.2H36.3z M155.3,17.3v45.8h45.8L155.3,17.3z M144.9,68.3V10.1H10.4v275.7h197.9V73.5
	h-58.2C147.2,73.5,144.9,71.2,144.9,68.3L144.9,68.3z"/>
</svg>
