<?xml version="1.0" encoding="utf-8"?>
<!-- Generator: Adobe Illustrator 25.4.1, SVG Export Plug-In . SVG Version: 6.00 Build 0)  -->
<svg version="1.1" id="Capa_1" xmlns="http://www.w3.org/2000/svg" xmlns:xlink="http://www.w3.org/1999/xlink" x="0px" y="0px"
	 viewBox="0 0 184 276" style="enable-background:new 0 0 184 276;" xml:space="preserve">
<style type="text/css">
	.st0{fill:#3F3F3F;}
</style>
<path class="st0" d="M93.7,8.8c-44.1,0-79.8,35.7-79.8,79.8c0,11.9,2.6,23.2,7.3,33.4L82,253.8c2.9,6.3,7.1,10.3,11.7,10.3
	c4.6,0,8.8-4,11.7-10.3l60.8-131.9c4.7-10.1,7.3-21.4,7.3-33.4C173.5,44.5,137.8,8.8,93.7,8.8z M93.7,136.4
	c-26.4,0-47.9-21.4-47.9-47.9c0-26.4,21.4-47.9,47.9-47.9c26.4,0,47.9,21.4,47.9,47.9C141.6,115,120.2,136.4,93.7,136.4z"/>
</svg>
