<?xml version="1.0" encoding="utf-8"?>
<!-- Generator: Adobe Illustrator 25.4.1, SVG Export Plug-In . SVG Version: 6.00 Build 0)  -->
<svg version="1.1" id="Capa_1" xmlns="http://www.w3.org/2000/svg" xmlns:xlink="http://www.w3.org/1999/xlink" x="0px" y="0px"
	 viewBox="0 0 214 412" style="enable-background:new 0 0 214 412;" xml:space="preserve">
<style type="text/css">
	.st0{fill:#333333;}
</style>
<path class="st0" d="M37.6,6h140.3c7.5,0,14.4,3.2,19.6,8.4l0,0c4.9,4.9,8.1,11.8,8.1,19.3v24.2v0.3v247.5v0.3v61.4
	c0,7.5-3.2,14.4-8.1,19.6c-4.9,4.9-12.1,8.1-19.6,8.1H37.6c-7.5,0-14.4-3.2-19.6-8.1c-4.9-5.2-8.1-12.1-8.1-19.6v-61.4v-0.3V58.1
	v-0.3V33.6c0-7.5,3.2-14.4,8.1-19.3l0.3-0.3C23.5,9.1,30.1,6,37.6,6L37.6,6z M107.9,340.4c4.9,0,9.5,2,13,5.5
	c3.2,3.2,5.5,7.8,5.5,13c0,5.2-2.3,9.8-5.5,13c-3.5,3.5-8.1,5.5-13,5.5c-5.2,0-9.8-2-13.3-5.5c-3.2-3.2-5.2-7.8-5.2-13
	c0-5.2,2-9.8,5.2-13C98.1,342.5,102.7,340.4,107.9,340.4L107.9,340.4z M113.6,353.1c-1.4-1.4-3.7-2.6-5.8-2.6c-2.3,0-4.6,1.2-6,2.6
	c-1.4,1.4-2.3,3.5-2.3,5.8c0,2.3,0.9,4.3,2.3,5.8c1.4,1.7,3.7,2.6,6,2.6c2,0,4.3-0.9,5.8-2.6c1.4-1.4,2.3-3.5,2.3-5.8
	C115.9,356.6,115.1,354.6,113.6,353.1L113.6,353.1z M37.6,30.5h140.3c6.6,0,12.7,2.6,17.6,6.3v-3.2c0-4.6-2-8.9-5.2-12.1
	c-3.2-3.2-7.5-5.2-12.4-5.2H37.6c-4.6,0-8.9,1.7-12.1,4.9l-0.3,0.3C22,24.7,20,29,20,33.6v3.2C24.9,33.1,30.9,30.5,37.6,30.5
	L37.6,30.5z M195.4,326.9c-4.9,4-10.9,6.3-17.6,6.3H37.6c-6.6,0-12.7-2.3-17.6-6.3v40.3c0,4.9,2,9.2,5.2,12.4
	c3.2,3.2,7.5,5.2,12.4,5.2h140.3c4.9,0,9.2-2,12.4-5.2c3.2-3.2,5.2-7.5,5.2-12.4V326.9z M177.9,40.8H37.6c-4.6,0-8.9,1.7-12.1,4.9
	h-0.3c-3.2,3.2-4.9,7.5-5.2,12.4v247.5c0.3,4.9,2,9.2,5.2,12.4c3.2,3.2,7.5,4.9,12.4,4.9h140.3c4.9,0,9.2-1.7,12.4-4.9
	c3.2-3.2,4.9-7.5,5.2-12.1v-248c-0.3-4.6-2-8.9-5.2-12.1C187.1,42.6,182.8,40.8,177.9,40.8L177.9,40.8z"/>
</svg>
